<mxfile host="app.diagrams.net" agent="Mozilla/5.0 (X11; Linux x86_64; rv:133.0) Gecko/20100101 Firefox/133.0" version="25.0.3">
  <diagram name="Page-1" id="EZRtKc55ZiPXAzjO_EIF">
    <mxGraphModel dx="1434" dy="840" grid="1" gridSize="10" guides="1" tooltips="1" connect="1" arrows="1" fold="1" page="1" pageScale="1" pageWidth="850" pageHeight="1100" math="0" shadow="0">
      <root>
        <mxCell id="0" />
        <mxCell id="1" parent="0" />
        <mxCell id="YB7Tp-IhjoN3xwZKIfDS-52" value="0" style="rounded=0;whiteSpace=wrap;html=1;fillColor=#f5f5f5;strokeColor=#666666;fontStyle=1;fontColor=#333333;" parent="1" vertex="1">
          <mxGeometry x="90" y="440" width="50" height="50" as="geometry" />
        </mxCell>
        <mxCell id="YB7Tp-IhjoN3xwZKIfDS-53" value="1" style="rounded=0;whiteSpace=wrap;html=1;fillColor=#f5f5f5;strokeColor=#666666;fontStyle=1;fontColor=#333333;" parent="1" vertex="1">
          <mxGeometry x="140" y="440" width="50" height="50" as="geometry" />
        </mxCell>
        <mxCell id="YB7Tp-IhjoN3xwZKIfDS-54" value="0" style="rounded=0;whiteSpace=wrap;html=1;fillColor=#f5f5f5;strokeColor=#666666;fontStyle=1;fontColor=#333333;" parent="1" vertex="1">
          <mxGeometry x="190" y="440" width="50" height="50" as="geometry" />
        </mxCell>
        <mxCell id="YB7Tp-IhjoN3xwZKIfDS-55" value="1" style="rounded=0;whiteSpace=wrap;html=1;fillColor=#f5f5f5;strokeColor=#666666;fontStyle=1;fontColor=#333333;" parent="1" vertex="1">
          <mxGeometry x="240" y="440" width="50" height="50" as="geometry" />
        </mxCell>
        <mxCell id="YB7Tp-IhjoN3xwZKIfDS-56" value="1" style="rounded=0;whiteSpace=wrap;html=1;fillColor=#f5f5f5;strokeColor=#666666;fontStyle=1;fontColor=#333333;" parent="1" vertex="1">
          <mxGeometry x="290" y="440" width="50" height="50" as="geometry" />
        </mxCell>
        <mxCell id="YB7Tp-IhjoN3xwZKIfDS-58" value="1" style="rounded=0;whiteSpace=wrap;html=1;fillColor=#f5f5f5;strokeColor=#666666;fontStyle=1;fontColor=#333333;" parent="1" vertex="1">
          <mxGeometry x="40" y="440" width="50" height="50" as="geometry" />
        </mxCell>
        <mxCell id="YB7Tp-IhjoN3xwZKIfDS-81" value="Binary chromosome" style="text;html=1;align=center;verticalAlign=middle;whiteSpace=wrap;rounded=0;fontStyle=0" parent="1" vertex="1">
          <mxGeometry x="30" y="400" width="135" height="30" as="geometry" />
        </mxCell>
        <mxCell id="YB7Tp-IhjoN3xwZKIfDS-88" value="2.4" style="rounded=0;whiteSpace=wrap;html=1;fillColor=#f5f5f5;strokeColor=#666666;fontStyle=1;fontColor=#333333;" parent="1" vertex="1">
          <mxGeometry x="460" y="500" width="50" height="50" as="geometry" />
        </mxCell>
        <mxCell id="YB7Tp-IhjoN3xwZKIfDS-89" value="5.3" style="rounded=0;whiteSpace=wrap;html=1;fillColor=#f5f5f5;strokeColor=#666666;fontStyle=1;fontColor=#333333;" parent="1" vertex="1">
          <mxGeometry x="510" y="500" width="50" height="50" as="geometry" />
        </mxCell>
        <mxCell id="YB7Tp-IhjoN3xwZKIfDS-90" value="-3.4" style="rounded=0;whiteSpace=wrap;html=1;fillColor=#f5f5f5;strokeColor=#666666;fontStyle=1;fontColor=#333333;" parent="1" vertex="1">
          <mxGeometry x="560" y="500" width="50" height="50" as="geometry" />
        </mxCell>
        <mxCell id="YB7Tp-IhjoN3xwZKIfDS-91" value="9.8" style="rounded=0;whiteSpace=wrap;html=1;fillColor=#f5f5f5;strokeColor=#666666;fontStyle=1;fontColor=#333333;" parent="1" vertex="1">
          <mxGeometry x="610" y="500" width="50" height="50" as="geometry" />
        </mxCell>
        <mxCell id="YB7Tp-IhjoN3xwZKIfDS-92" value="2.2" style="rounded=0;whiteSpace=wrap;html=1;fillColor=#f5f5f5;strokeColor=#666666;fontStyle=1;fontColor=#333333;" parent="1" vertex="1">
          <mxGeometry x="660" y="500" width="50" height="50" as="geometry" />
        </mxCell>
        <mxCell id="YB7Tp-IhjoN3xwZKIfDS-93" value="1.0" style="rounded=0;whiteSpace=wrap;html=1;fillColor=#f5f5f5;strokeColor=#666666;fontStyle=1;fontColor=#333333;" parent="1" vertex="1">
          <mxGeometry x="410" y="500" width="50" height="50" as="geometry" />
        </mxCell>
        <mxCell id="9dZHEHK6WGQNG96B6Vrl-1" value="Real-value chromosome" style="text;html=1;align=center;verticalAlign=middle;whiteSpace=wrap;rounded=0;fontStyle=0" parent="1" vertex="1">
          <mxGeometry x="410" y="460" width="135" height="30" as="geometry" />
        </mxCell>
        <mxCell id="CYtRTTRJ6YLnxzFVTOUN-1" value="7" style="rounded=0;whiteSpace=wrap;html=1;fillColor=#f5f5f5;strokeColor=#666666;fontStyle=1;fontColor=#333333;" vertex="1" parent="1">
          <mxGeometry x="90" y="560" width="50" height="50" as="geometry" />
        </mxCell>
        <mxCell id="CYtRTTRJ6YLnxzFVTOUN-2" value="8" style="rounded=0;whiteSpace=wrap;html=1;fillColor=#f5f5f5;strokeColor=#666666;fontStyle=1;fontColor=#333333;" vertex="1" parent="1">
          <mxGeometry x="140" y="560" width="50" height="50" as="geometry" />
        </mxCell>
        <mxCell id="CYtRTTRJ6YLnxzFVTOUN-3" value="4" style="rounded=0;whiteSpace=wrap;html=1;fillColor=#f5f5f5;strokeColor=#666666;fontStyle=1;fontColor=#333333;" vertex="1" parent="1">
          <mxGeometry x="190" y="560" width="50" height="50" as="geometry" />
        </mxCell>
        <mxCell id="CYtRTTRJ6YLnxzFVTOUN-4" value="3" style="rounded=0;whiteSpace=wrap;html=1;fillColor=#f5f5f5;strokeColor=#666666;fontStyle=1;fontColor=#333333;" vertex="1" parent="1">
          <mxGeometry x="240" y="560" width="50" height="50" as="geometry" />
        </mxCell>
        <mxCell id="CYtRTTRJ6YLnxzFVTOUN-5" value="2" style="rounded=0;whiteSpace=wrap;html=1;fillColor=#f5f5f5;strokeColor=#666666;fontStyle=1;fontColor=#333333;" vertex="1" parent="1">
          <mxGeometry x="290" y="560" width="50" height="50" as="geometry" />
        </mxCell>
        <mxCell id="CYtRTTRJ6YLnxzFVTOUN-6" value="1" style="rounded=0;whiteSpace=wrap;html=1;fillColor=#f5f5f5;strokeColor=#666666;fontStyle=1;fontColor=#333333;" vertex="1" parent="1">
          <mxGeometry x="40" y="560" width="50" height="50" as="geometry" />
        </mxCell>
        <mxCell id="CYtRTTRJ6YLnxzFVTOUN-7" value="Discrete chromosome" style="text;html=1;align=center;verticalAlign=middle;whiteSpace=wrap;rounded=0;fontStyle=0" vertex="1" parent="1">
          <mxGeometry x="40" y="520" width="135" height="30" as="geometry" />
        </mxCell>
      </root>
    </mxGraphModel>
  </diagram>
</mxfile>
